<svg width="277" height="399" viewBox="0 0 277 399" fill="none" xmlns="http://www.w3.org/2000/svg">
<path d="M114.29 83.4646C129.786 72.7505 146.694 64.2225 164.087 56.3081C165.273 57.279 163.843 57.3753 164.088 58.05C164.66 58.7082 166.182 57.6504 166.565 59.4957C166.893 61.2211 165.98 61.8557 164.946 62.5209C159.507 65.9834 152.9 67.9343 147.77 71.921C145.999 73.3102 144.592 75.3435 141.612 75.5668C139.734 75.7101 139.116 78.1454 137.187 78.9046C136.011 79.4053 134.904 80.4913 133.607 81.0225C128.237 83.3284 124.099 86.9954 121.258 91.873C120.783 92.731 119.957 93.4103 118.905 92.8743C116.155 91.565 113.017 91.1583 111.171 87.7427C109.888 85.2557 110.294 83.8124 111.595 82.2751C114.783 78.5822 119.059 76.0859 123.336 73.5896C128.342 70.6396 133.569 68.1691 138.717 65.3836C145.444 61.6603 152.655 58.5505 159.755 55.2009C160.419 54.8977 161.342 53.9927 162.112 54.9353C162.652 55.6687 161.564 56.2141 160.899 56.5173C156.816 58.5623 152.678 60.4874 148.364 62.3232C144.291 64.0979 140.558 66.3216 136.794 68.6205C130.667 72.191 124.342 75.4772 118.589 79.4215C116.915 80.585 115.36 81.718 114.29 83.4646Z" fill="black"/>
<path d="M69.915 148.775C67.7586 149.055 67.3048 146.618 66.9068 146.048C65.9209 144.352 63.2138 144.168 63.172 142.768C63.0375 140.586 61.9266 138.182 63.6664 136.127C67.1366 132.289 71.1807 129.111 75.0814 125.767C77.9363 123.361 80.7034 120.911 84.1646 119.09C85.6823 118.3 87.3112 117.751 89.2733 117.923C91.2354 118.096 92.7302 118.857 93.915 120.839C94.7574 122.37 96.0255 123.659 96.7152 125.297C97.3494 126.815 97.7753 128.318 95.8734 129.004C94.5731 129.536 94.2308 130.832 93.3378 131.664C89.7333 135.066 87.022 139.383 82.4919 141.947C79.1187 143.813 76.1434 146.249 73.2005 148.61C72.2196 149.397 71.3266 150.229 69.915 148.775Z" fill="black"/>
<path d="M180.715 162.406C180.036 162.984 179.543 163.379 179.082 163.698C179.217 164.135 179.547 164.119 179.933 164.223C180.617 164.386 181.217 163.492 181.761 164.23C182.45 165.134 181.04 165.155 180.901 165.73C181.775 166.452 182.496 165.527 183.203 165.887C183.757 168.106 182.496 169.033 180.817 169.932C176.065 172.218 171.744 175.002 167.968 178.524C166.545 179.83 163.713 179.404 162.778 181.327C161.615 183.78 159.378 185.225 157.128 186.201C153.175 187.881 151.082 191.244 148.059 193.766C147.227 194.449 147.324 195.975 145.938 196.192C145.487 196.24 144.697 196.575 144.66 195.911C144.548 193.916 142.72 193.909 141.613 192.977C139.543 191.278 139.859 189.04 140.399 187.285C141.217 184.38 143.24 182.18 145.607 180.432C154.56 173.64 164.112 167.705 174.729 163.051C176.343 162.304 177.966 161.285 180.715 162.406Z" fill="black"/>
<path d="M169.898 109.951C168.746 111.121 167.562 112.368 166.289 113.569C158.343 120.992 149.498 127.494 140.275 133.62C136.768 135.997 132.884 137.996 129.844 140.795C128.944 141.632 127.82 141.985 126.771 140.157C126.514 139.749 126.048 139.327 125.67 138.95C123.05 136.509 122.746 133.951 124.863 131.792C127.013 129.557 129.829 128.031 132.524 126.536C144.163 120.067 155.513 113.266 165.505 104.851C166.745 103.726 167.011 103.861 167.673 105.584C167.697 105.781 167.93 105.992 168.14 106.006C170.453 106.905 170.042 108.36 169.898 109.951Z" fill="black"/>
<path d="M50.9669 190.365C47.2126 193.551 42.5185 195.148 38.9278 197.955C35.3044 200.837 31.4238 203.311 28.5017 206.827C31.6857 204.462 34.8135 201.977 37.9974 199.612C41.677 196.851 45.7586 194.664 49.7514 192.433C51.7477 191.317 53.1364 192.115 54.1323 193.826C55.1281 195.536 54.7074 197.267 52.9167 197.654C49.2699 198.579 46.5161 200.699 44.2953 203.09C40.4475 207.248 35.4635 210.272 32.317 215.064C31.6157 216.19 30.1243 216.636 29.3575 217.913C28.4365 219.298 27.7913 220.544 28.0906 222.363C28.2636 223.47 29.0491 225.166 27.5015 225.491C26.2859 225.799 24.7243 225.654 23.5087 224.203C23.0738 223.704 22.12 223.405 21.4094 223.044C17.2996 220.77 15.8268 217.15 17.9868 213.895C20.8808 209.438 25.0653 206.007 29.217 202.652C34.7012 198.215 40.4753 194.11 47.0863 191.079C48.1009 190.483 48.9939 189.918 50.9669 190.365Z" fill="black"/>
<path d="M132.824 283.156C127.282 280.33 126.443 277.364 130.07 274.319C132.881 271.945 136.476 270.696 139.985 269.403C148.164 266.321 156.539 263.521 165.133 261.195C167.265 260.65 169.307 261.057 171.403 261.582C172.16 261.786 173.791 262.165 173.481 262.641C172.948 263.639 173.692 265.105 172.174 265.691C165.339 268.098 158.865 271.142 152.248 274.024C149.3 275.24 146.298 276.338 143.404 277.673C141.436 278.573 139.436 279.547 139.842 282.292C139.919 282.603 139.546 283.229 139.341 283.215C136.953 282.632 134.793 283.978 132.824 283.156Z" fill="black"/>
<path d="M238.777 193.326C242.866 192.017 246.073 189.525 250.161 188.215C251.393 187.835 252.648 187.649 253.737 187.103C255.578 186.299 256.266 187.933 256.829 188.862C257.424 189.715 257.323 190.947 256.026 191.479C250.983 193.768 246.36 196.822 242.262 200.144C239.328 202.5 235.415 203.899 233.274 207.392C232.485 208.732 230.667 209.731 229.375 210.998C227.682 212.703 226.671 210.079 225.388 209.334C225.213 209.245 225.263 208.629 225 208.495C224.211 208.093 222.91 209.63 222.582 207.904C221.977 205.579 221.34 203.329 223.283 201.293C226.365 198.096 230.075 195.677 233.983 193.542C239.229 190.531 244.309 187.16 250.603 185.69C251.083 185.568 251.476 185.401 252.011 185.399C252.491 185.277 253.114 185.319 253.391 185.919C253.723 186.638 253.266 186.955 252.666 187.108C247.526 187.882 243.918 190.811 239.682 192.962C239.299 192.858 239.05 193.19 238.777 193.326Z" fill="black"/>
<path d="M116.082 227.802C117.719 227.452 119.41 227.22 120.904 226.706C122.581 226.011 124.016 226.378 125.414 227.82C126.244 228.608 125.685 229.416 125.341 229.97C124.47 231.258 123.031 231.891 121.152 231.571C120.74 231.543 120.258 230.934 120.002 231.532C118.719 234.523 114.998 234.54 112.665 236.267C111.909 236.793 110.924 237.111 110.08 237.593C107.583 238.963 105.337 240.734 101.762 239.914C100.882 239.739 99.5258 239.685 99.4252 240.91C99.3617 244.523 96.0574 245.299 93.7019 246.833C89.8663 249.343 85.4622 251.199 81.7687 253.873C81.315 254.189 80.9714 254.743 80.3388 254.238C79.5321 253.644 80.9528 253.548 80.5036 252.864C79.234 252.854 77.7309 253.637 76.9238 251.312C76.6258 250.522 75.4572 251.02 74.7652 251.397C74.3115 251.712 73.7707 251.983 73.2344 251.254C72.6109 250.481 73.5 250.387 73.8345 250.102C80.5525 245.324 87.917 241.514 95.4235 237.868C102.087 234.703 108.663 231.493 115.358 228.253C115.716 228.162 115.899 227.982 116.082 227.802Z" fill="black"/>
<path d="M169.472 224.913C168.604 224.74 171.71 223.356 168.843 223.693C168.725 223.723 168.639 223.68 168.639 223.68C167.59 221.976 166.269 221.393 164.474 221.917C164.004 222.037 162.362 218.053 162.71 217.241C163.13 216.017 163.948 215.085 164.992 214.358C170.811 210.309 177.678 207.964 185.284 207.074C189.028 206.644 192.026 208.441 194.518 211.42C195.835 212.989 195.424 213.949 193.574 214.355C191.607 214.792 189.695 215.346 187.837 216.017C185.712 216.823 183.727 217.79 181.462 218.434C178.491 219.258 176.579 221.521 174.052 223.021C172.42 223.897 171.109 224.758 169.472 224.913ZM166.562 217.046C170.627 214.891 174.777 212.78 179.122 210.947C174.853 211.38 168.781 214.311 166.562 217.046Z" fill="black"/>
<path d="M230.489 260.932C229.689 261.804 229.257 262.315 228.521 263.036C229.206 262.929 229.588 263.032 229.772 262.851C231.234 261.677 232.526 262.884 233.468 263.913C234.466 265.061 234.301 266.439 233.326 267.222C231.8 268.546 230.099 269.781 228.32 270.702C225.815 272.075 223.168 273.285 221.122 275.075C218.925 276.971 216.323 278.569 215.768 281.85C215.538 283.378 213.786 283.491 212.614 282.253C211.956 281.553 211.258 281.196 210.439 280.871C205.364 278.558 204.117 274.267 207.808 271.122C212.961 266.803 219.419 264.155 226.076 261.79C227.183 261.441 228.31 260.552 230.489 260.932Z" fill="black"/>
<path d="M20.4538 275.812C19.8095 277.313 20.9745 278.822 20.6018 280.188C18.3182 279.298 17.3374 277.609 17.7145 275.239C18.1883 272.644 19.9651 270.988 21.9629 269.81C26.4372 267.332 30.4834 264.362 35.7497 263.02C37.8167 262.426 39.7684 260.859 41.932 260.04C48.0637 257.674 54.3381 255.474 60.5251 253.228C61.7864 252.773 63.1583 252.557 64.5532 252.536C65.2944 252.547 65.9389 252.784 66.3027 253.427C66.7217 254.19 66.4088 254.671 65.8334 255.018C64.9864 255.501 64.1946 256.104 63.2924 256.468C54.6933 259.863 46.0711 263.064 37.6148 266.623C34.3326 268.062 31.3589 270.023 28.8135 272.478C27.6766 273.637 27.5572 275.406 27.1753 277.041C27.1017 277.461 27.4563 278.374 26.5402 278.273C24.7079 278.071 23.1703 277.928 23.7968 280.443C23.9856 280.997 23.1017 280.821 22.6643 280.598C21.7895 280.152 20.7398 279.617 21.0711 278.597C21.4899 277.621 21.0708 276.858 20.4538 275.812Z" fill="black"/>
<path d="M107.323 183.598C106.931 183.036 106.703 182.829 106.253 183.143C104.741 184.456 103.316 185.813 101.577 186.919C100.557 187.576 99.8148 189.553 97.6466 187.723C97.3323 187.473 97.173 187.844 97.2186 188.23C97.4283 188.971 96.9775 189.285 96.3536 189.51C95.2243 189.931 94.6689 190.735 94.3959 191.864C93.8818 194.047 91.8234 194.176 90.0104 192.255C89.7827 192.048 89.5093 191.456 89.359 191.56C87.4379 194.567 87.2089 189.196 85.6745 190.316C85.2599 189.561 85.1686 188.79 85.4007 188.002C85.9286 186.279 87.3128 185.263 88.7516 184.366C94.325 180.957 100.869 179.22 107.522 177.721C109.148 177.372 110.91 178.18 112.627 178.602C113.588 178.821 113.907 179.799 113.999 180.57C114.081 181.608 113.498 181.492 112.846 180.798C112.123 182.24 110.465 182.664 109.09 183.412C108.457 183.904 107.943 184.367 107.323 183.598Z" fill="black"/>
<path d="M197.219 138.207C196.157 138.679 196.036 140.459 193.767 139.488C192.148 138.756 192.705 138.211 192.997 137.531C191.554 136.889 191.555 138.638 190.191 138.312C190.473 136.154 192.134 134.79 192.737 132.887C192.769 132.811 192.769 132.811 192.802 132.736C195.029 132.304 196.249 130.715 197.933 129.546C198.577 129.046 199.078 128.38 199.779 128C205.735 125.139 211.093 121.421 217.249 118.845C222.101 116.804 226.698 114.356 231.662 112.555C232.812 112.127 233.907 111.58 236.027 111.646C233.828 113.013 232.177 114.106 230.47 115.079C230.502 115.003 230.623 114.972 230.655 114.897C227.232 115.364 224.973 117.621 221.804 118.494C222.37 119.427 222.774 118.988 223.247 119.136C223.897 119.375 224.208 119.902 224.277 120.489C224.268 120.761 224.37 121.273 223.897 121.125C221.763 120.591 221.74 122.144 221.165 123.233C220.557 124.397 219.592 124.642 218.219 124.588C216.187 124.566 214.73 125.206 214.16 127.033C213.733 127.276 213.218 127.475 212.791 127.718C210.616 127.531 206.436 130.007 205.963 131.608C204.873 131.145 203.806 132.628 202.697 130.959C202.678 129.752 202.697 129.209 201.031 129.835C198.939 130.703 198.295 132.953 196.003 133.536C195.641 133.628 195.511 133.93 195.799 134.261C196.142 134.712 196.648 134.785 196.81 134.408C197.757 132.956 199.742 132.585 200.832 131.298C201.268 130.784 201.704 130.269 202.697 130.959C202.048 134.219 198.527 134.913 196.453 136.988C196.235 137.246 195.126 135.576 195.168 136.979C195.294 137.687 196.166 138.407 197.219 138.207ZM213.612 123.808C213.501 123.567 213.357 123.402 213.157 123.116C211.362 124.044 209.534 125.047 207.827 126.02C207.674 126.126 207.248 126.369 207.535 126.7C207.735 126.985 208.175 127.21 208.361 127.028C209.669 125.484 212.216 125.307 213.612 123.808Z" fill="black"/>
<path d="M178.639 307.154C177.634 308.011 177.62 309.281 177.639 310.477C177.676 311.135 177.69 311.599 176.808 311.423C176.014 311.292 175.858 310.665 175.789 310.082C175.66 308.647 176.348 307.538 177.147 306.667C180.277 303.334 184.317 301.103 188.806 299.558C190.183 299.074 191.584 298.783 192.818 298.135C194.962 296.854 197.455 297.486 199.893 297.999C201.068 298.233 200.728 299.52 200.646 300.208C200.573 300.627 200.022 301.168 199.576 301.215C195.133 301.414 192.916 304.847 189.317 306.299C188.146 306.797 187.724 308.773 186.164 309.438C184.993 309.936 184.043 310.912 182.28 310.561C181.311 310.341 181.592 311.671 180.899 312.048C180.596 312.258 180.261 312.544 179.824 312.322C179.356 312.174 178.993 311.533 179.177 311.353C180.375 310.047 178.355 308.561 178.639 307.154Z" fill="black"/>
<path d="M116.474 227.98C116.29 228.161 116.106 228.341 115.835 228.477C111.661 229.274 107.906 230.833 104.238 232.435C99.159 234.599 94.3007 237.24 89.5297 239.925C85.485 242.158 80.9575 243.78 77.5058 246.864C76.1316 248.082 74.2655 248.959 71.7741 249.06C72.2793 246.393 74.789 245.753 76.5769 244.563C81.2145 241.444 86.4773 239.1 91.5655 236.668C100.864 232.361 109.854 227.531 120.22 224.955C120.817 224.803 121.392 224.456 122.311 225.29C120.808 226.809 118.174 226.745 116.474 227.98Z" fill="black"/>
<path d="M215.256 234.023C214.053 234.132 214.508 236.26 213.223 235.334C212.111 234.496 213.082 233.456 213.776 232.817C217.801 228.82 223.098 227.006 229.462 227.36C230.397 227.386 231.827 227.482 232.158 228.916C232.467 230.156 231.178 230.222 230.32 230.507C226.803 231.603 223.394 232.935 221.393 235.887C220.872 236.614 219.968 236.515 219.065 236.416C218.775 236.358 218.452 236.374 218.098 236.465C215.824 237.111 214.553 236.644 215.256 234.023Z" fill="black"/>
<path d="M215.166 118.358C213.846 120.693 210.711 120.826 208.57 122.105C207.003 123.038 205.426 124.24 203.377 124.562C202.813 124.639 202.47 125.193 201.901 124.539C201.475 124.048 201.612 123.48 202.185 123.134C205.526 121.283 208.868 119.431 212.516 118.101C213.383 117.813 214.341 118.302 215.166 118.358Z" fill="black"/>
<path d="M215.237 116.841C215.201 116.185 215.077 115.485 215.887 115.078C220.471 113.044 225.054 111.009 229.944 109.496C230.301 109.405 230.732 108.895 231.18 109.58C231.519 110.026 231.185 110.311 230.796 110.476C225.714 112.438 220.741 114.639 215.824 116.958C215.791 117.033 215.443 116.855 215.237 116.841C215.237 116.841 215.182 116.722 215.237 116.841Z" fill="black"/>
<path d="M193.228 134.566C193.195 134.643 193.162 134.719 193.162 134.719C192.313 135.412 191.08 135.723 190.672 136.919C190.505 137.303 190.33 137.962 189.642 137.52C189.045 137.125 189.334 136.71 189.623 136.295C191.825 132.734 194.794 129.935 198.033 127.273C198.569 126.796 199.736 126.638 200.324 127.31C201.059 128.149 200.096 128.597 199.537 128.875C196.919 130.355 195.102 132.522 193.228 134.566Z" fill="black"/>
<path d="M230.489 112.921C230.457 112.996 230.425 113.071 230.306 113.101C231.65 112.692 233.577 113.401 234.371 111.798C234.499 111.499 235.701 110.926 236.316 111.969C236.844 112.968 235.715 113.122 235.151 113.199C232.439 113.824 230.1 114.821 228.169 116.847C227.705 115.698 226.797 114.596 228.751 114.498C229.728 114.449 229.852 113.417 230.489 112.921Z" fill="black"/>
<path d="M212.49 127.735C212.914 127.493 213.427 127.296 213.851 127.053C214.299 127.007 214.747 126.96 215.194 126.913C215.25 127.033 215.393 127.197 215.448 127.317C214.142 128.118 212.804 128.995 211.411 129.752C211.267 129.587 211.092 129.498 210.949 129.333C211.503 128.79 211.936 128.278 212.49 127.735Z" fill="black"/>
<path d="M198.202 138.891C198.381 137.216 199.936 136.89 201.143 136.109C202.229 135.358 203.403 134.654 204.578 133.949C204.615 134.618 204.329 135.03 203.742 135.383C201.825 136.547 200.086 137.802 198.202 138.891Z" fill="black"/>
</svg>
