<svg width="321" height="264" viewBox="0 0 321 264" fill="none" xmlns="http://www.w3.org/2000/svg">
<path d="M58.4234 7.98688C58.0539 6.57853 57.3562 5.59712 56.1933 5.00756C55.4923 4.60921 54.2752 4.51673 53.9184 3.91449C53.3226 3.10513 52.3954 3.3058 51.9175 2.89154C51.1496 2.18413 50.4964 2.4549 49.7572 2.77665C49.19 2.99645 48.454 2.73511 48.6485 1.69004C48.1673 1.85887 47.6862 2.02773 47.17 2.33357C47.2401 2.05955 47.1381 1.88747 47.2242 1.83649C48.4286 1.12287 49.6841 0.495277 51.1019 1.515C51.2899 1.63611 51.3918 1.80816 51.4778 1.75718C54.8903 1.82755 55.2822 2.2928 58.771 4.06145C59.746 4.5299 60.8102 4.3643 61.594 5.29476C62.7186 6.60441 64.6877 7.18129 65.5701 8.86689C65.6721 9.03897 66.0321 9.05807 66.2201 9.17917C67.2269 10.0937 68.734 10.4794 69.2405 11.9228C70.5755 12.4104 71.1521 13.5798 72.1079 14.4083C73.4046 15.616 74.201 17.3526 75.998 18.0314C76.2721 18.1015 76.3549 18.6336 76.5938 18.8408C77.1386 19.5641 77.3902 20.5774 78.4512 20.9948C79.2382 21.3422 79.1967 22.6454 80.3947 23.0979C81.1307 23.3593 81.2963 24.4235 82.0131 25.0449C83.1729 26.2175 84.2975 27.5271 85.6293 28.5978C86.4322 29.1682 85.5209 29.592 85.2946 30.1909C85.8777 30.1942 86.5117 30.2834 87.3688 30.3568C87.5217 30.6149 87.7925 31.2681 88.1334 31.6473C88.5604 31.9755 89.2295 31.9278 89.6915 32.119C90.4275 32.3803 91.0774 32.6926 91.7784 33.091C91.9664 33.2121 91.9472 33.5721 91.9982 33.6581C93.1803 33.8876 94.3624 34.1172 95.5954 34.4327C95.4902 34.8437 95.5571 35.1528 95.4361 35.3408C95.315 35.5288 95.0569 35.6816 94.8147 36.0576C95.2767 36.2488 95.4646 36.3699 95.7387 36.44C96.0127 36.5102 96.2867 36.5803 96.6467 36.5994C96.4906 36.9244 96.3854 37.3355 96.1942 37.7974C97.0162 38.0078 97.5578 39.3142 98.8833 38.4126C98.5424 38.0334 98.0295 37.7562 97.8256 37.412C97.6568 36.9309 97.797 36.3829 97.8353 35.6628C98.2973 35.854 98.9313 35.9432 99.3073 36.1854C100.451 37.135 101.735 37.5366 103.14 37.7502C104.271 37.8937 105.332 38.3112 105.963 38.9835C106.221 38.8306 106.428 38.5916 106.687 38.4387C107.247 39.3851 108.174 39.1844 109.032 39.2578C109.255 39.2419 109.564 39.175 109.838 39.2451C111.326 39.9908 112.903 40.1024 114.464 39.991C115.493 39.9625 116.264 40.0868 116.755 41.3072C116.825 41.0332 116.86 40.8962 116.895 40.7591C117.242 39.9722 118.182 40.5776 118.546 40.0137C120.362 40.3325 122.184 39.4851 123.825 40.4889C124.498 39.858 125.135 39.3642 126.065 38.5805C125.976 39.2145 125.992 39.4376 125.922 39.7116C126.524 39.3548 127.308 40.2852 127.76 39.0872C127.952 38.6252 128.984 38.0135 129.567 38.0168C130.561 38.1252 131.061 37.5963 131.75 37.1885C134.159 35.7613 136.807 34.5411 138.926 32.8207C142.233 30.1636 145.948 28.1948 149.511 25.9679C150.457 25.4072 150.996 24.1582 152.095 23.8556C152.576 23.6868 153.124 23.827 153.554 23.5722C153.985 23.3173 154.125 22.7693 154.504 22.4284C155.211 21.6605 156.394 21.89 157.168 21.4313C158.665 20.4277 160.434 20.0774 161.947 19.2969C162.119 19.1949 162.241 19.007 162.378 19.042C164.554 19.3799 166.482 18.1215 168.61 17.7903C172.335 17.2107 175.974 16.6821 179.644 16.5995C183.538 16.5011 187.603 16.3007 191.331 18.2764C191.844 18.5537 192.497 18.2829 193.045 18.4232C193.558 18.7004 193.915 19.3026 194.377 19.4938C195.438 19.9113 196.62 20.1408 198.076 20.4405C198.344 21.6767 199.523 22.4893 200.893 22.8399C202.725 23.3818 203.658 25.1534 205.611 25.5072C207.068 25.8068 208.383 26.6545 209.613 27.5531C210.894 28.5378 212.296 29.3345 213.577 30.3191C214.431 30.9756 215.527 31.256 216.189 32.3745C216.342 32.6326 217.512 32.056 217.763 33.0692C217.932 33.5504 218.547 33.9997 219.009 34.1909C220.019 34.5223 220.306 35.3986 220.714 36.0868C221.462 37.1543 221.781 38.4766 223.132 39.1873C223.457 39.3434 223.763 39.8596 223.794 40.3057C223.877 40.8378 223.479 41.5388 224.438 41.7842C224.712 41.8543 224.588 42.6254 224.842 43.0555C225.996 45.3944 226.394 47.8319 225.763 50.298C225.587 50.983 225.498 51.6171 225.906 52.3053C226.33 53.2167 226.632 54.3159 226.473 55.224C226.278 56.2691 227.046 56.9765 226.852 58.0216C226.798 58.5186 227.154 59.1209 226.998 59.4459C226.198 61.4308 226.925 63.4414 226.794 65.3787C227.562 66.0861 226.118 66.5926 226.529 66.6978C227.402 66.9941 226.988 67.4721 226.883 67.8831C226.743 68.4311 226.379 68.995 226.067 69.645C226.443 69.8872 226.87 70.2154 227.708 70.6488C227.482 71.2478 226.946 71.9137 226.943 72.4968C227.058 73.475 225.92 74.4977 227.115 75.5333C227.303 75.6544 226.955 76.4414 226.815 76.9894C226.745 77.2634 226.452 77.5533 226.503 77.6394C227.784 78.624 226.541 80.0578 227.29 81.1252C227.392 81.2973 227.493 81.4694 227.458 81.6064C226.799 83.0433 227.391 84.4358 227.452 85.911C227.582 87.1122 227.267 88.3453 227.123 89.4764C226.505 89.6102 226.059 89.642 225.527 89.7248C226.486 89.9702 227.171 90.1455 227.719 90.2858C227.999 92.3282 228.659 94.0297 227.585 95.9446C228.066 95.7757 228.375 95.7089 228.907 95.6261C228.818 96.2601 228.541 96.7731 228.709 97.2542C228.894 97.9584 229.611 98.5798 229.315 99.4528C229.28 99.5898 229.879 99.8161 230.117 100.023C230.305 100.144 230.474 100.625 230.474 100.625C229.356 101.288 230.484 102.015 230.394 102.649C230.289 103.06 230.184 103.471 229.958 104.07C230.783 103.697 231.382 103.923 231.911 104.424C232.252 104.803 232.867 105.252 232.797 105.526C232.688 106.52 233.029 106.899 233.867 107.333C234.38 107.61 234.667 108.486 235.075 109.175C235.243 109.656 233.784 109.939 234.724 110.545C235.425 110.943 235.635 110.121 235.776 109.573C237.263 110.319 235.03 111.061 236.072 111.838C236.499 112.167 236.527 113.196 236.798 113.849C238.136 113.753 237.509 112.498 238.06 112.055C238.576 111.749 239.398 111.96 239.395 112.543C239.427 112.989 239.372 113.486 239.991 113.352C240.128 113.387 240.201 112.53 240.765 112.893C241.141 113.136 241.431 113.429 241.721 113.722C242.966 114.844 244.419 115.726 246.083 115.787C247.3 115.879 248.638 115.784 249.89 115.739C251.142 115.695 252.481 115.599 253.749 115.778C254.469 115.816 255.221 116.301 255.871 116.613C256.081 115.791 256.597 115.485 257.54 115.507C259.564 115.587 261.59 115.084 263.578 115.301C265.07 115.463 266.459 115.454 267.934 115.394C269.409 115.333 270.814 115.547 272.306 115.709C272.443 115.744 272.631 115.866 272.768 115.901C271.974 116.719 271.267 117.487 270.422 118.22C270.473 118.306 270.524 118.392 270.575 118.478C270.97 118.36 271.279 118.293 271.623 118.089C271.882 117.937 272.124 117.561 272.331 117.322C272.755 118.233 274.303 117.315 274.364 118.791C275.224 118.281 275.912 117.873 277.031 117.21C275.626 116.997 274.494 116.853 273.277 116.761C273.628 115.391 274.944 116.239 275.718 115.78C277.856 116.838 280.246 115.771 282.524 116.281C282.881 116.883 283.288 117.571 283.747 118.345C284.177 118.09 284.608 117.836 285.124 117.53C285.258 118.148 285.289 118.594 285.423 119.212C285.99 118.992 286.471 118.823 286.988 118.518C287.517 119.018 287.959 119.569 288.66 119.968C289.036 120.21 289.705 120.162 290.132 120.49C290.559 120.818 290.693 121.437 290.948 121.867C290.999 121.953 291.05 122.039 291.136 121.988C293.003 122.393 294.402 123.772 295.835 125.015C295.8 125.152 295.679 125.34 295.746 125.649C295.727 126.009 295.845 126.404 295.963 126.799C296.307 126.596 296.686 126.255 297.116 126C299.146 128.052 299.146 128.052 299.276 129.253C300.254 129.139 300.923 129.091 301.758 130.107C303.342 132.191 305.218 133.985 306.544 136.222C306.849 136.738 307.879 136.71 307.496 137.634C308.611 137.554 307.748 138.647 308.261 138.924C308.911 139.236 309.733 139.447 309.127 140.387C309.793 140.922 310.494 141.32 311.16 141.856C311.071 142.49 310.449 143.207 311.647 143.659C312.109 143.85 312.396 144.727 311.571 145.099C311.571 145.099 311.638 145.409 311.775 145.444C312.769 145.552 311.612 146.935 312.727 146.855C312.95 146.839 313.208 146.686 313.294 146.635C313.119 147.32 312.909 148.142 312.577 149.152C313.453 148.866 313.935 148.697 314.76 148.324C314.534 148.923 314.479 149.42 314.186 149.71C313.635 150.153 313.839 150.497 314.215 150.739C314.814 150.966 315.005 150.504 315.059 150.007C315.008 149.921 315.094 149.87 315.129 149.733C316.206 150.373 315.276 151.157 315.359 151.689C317.238 152.9 318.035 154.636 318.401 156.628C318.685 158.087 319.465 159.601 318.547 161.191C318.426 161.379 319.557 161.522 319.022 162.188C319.382 162.207 319.828 162.175 320.325 162.229C320.013 162.879 319.65 163.443 319.337 164.093C319.713 164.336 320.226 164.613 320.567 164.992C320.669 165.164 320.048 165.881 320.099 165.967C321.329 166.866 320.739 168.029 320.458 169.125C320.092 170.272 320.258 171.336 320.423 172.4C318.977 173.49 319.948 174.541 320.866 176.09C319.754 175.586 319.19 175.223 318.591 174.997C318.521 175.271 318.416 175.682 318.31 176.093C318.756 176.061 319.167 176.166 319.528 176.185C319.594 176.494 319.782 176.615 319.747 176.752C319.464 178.432 319.043 180.076 318.982 181.739C318.944 182.459 317.88 182.625 318.303 183.536C318.456 183.794 317.765 184.785 317.249 185.091C316.372 185.377 316.302 185.651 316.28 186.595C316.257 187.538 315.687 188.341 315.391 189.214C314.466 191.97 314.45 194.885 312.927 197.415C313.188 199.817 311.429 201.557 310.868 203.749C310.447 205.393 308.778 206.499 308.545 208.264C308.51 208.401 308.166 208.605 307.857 208.672C306.895 209.009 306.496 209.71 306.388 210.704C305.932 212.485 304.638 213.833 303.431 215.13C302.395 216.324 301.7 217.898 299.999 218.558C299.441 220.167 297.841 220.998 297.131 222.349C296.646 223.101 296.082 222.738 295.789 223.028C295.238 223.471 294.891 224.258 294.441 224.873C293.82 225.589 293.387 226.427 292.475 226.851C291.822 227.122 290.895 227.323 290.751 228.454C290.716 228.591 290.082 228.501 289.824 228.654C289.515 228.721 289.085 228.976 289.05 229.113C288.559 231.031 287.788 230.907 287.186 231.264C286.36 231.636 285.841 232.525 285.032 233.121C284.136 233.768 283.088 234.156 282.193 234.803C281.125 235.552 279.615 235.749 279.092 237.221C277.569 236.613 277.011 238.222 276.014 238.696C275.189 239.069 274.176 239.321 273.366 239.916C272.901 240.308 271.977 239.926 271.391 240.506C270.839 240.949 270.1 241.27 269.498 241.627C269.033 242.019 268.144 241.5 267.898 242.459C267.949 242.545 267.057 242.608 266.732 242.452C266.133 242.226 265.706 241.898 265.142 241.534C265.155 242.341 265.066 242.975 265.011 243.472C263.963 243.86 263.087 244.147 262.227 244.657C260.799 245.386 259.54 246.597 257.96 247.068C255.726 247.811 253.901 249.241 251.718 250.069C249.707 250.796 247.815 251.917 245.702 252.471C245.53 252.573 245.393 252.538 245.17 252.554C244.536 252.465 243.956 251.879 243.589 253.026C243.519 253.3 242.388 253.156 242.009 253.497C241.286 254.042 240.343 254.019 239.552 254.255C237.972 254.727 236.376 254.975 234.897 255.618C233.419 256.262 231.771 256.424 230.344 257.154C229.346 257.629 228.094 257.673 226.909 258.027C224.882 258.53 222.837 259.393 220.845 259.759C216.502 260.473 212.277 261.581 207.903 261.849C205.895 261.992 203.751 262.1 201.673 262.517C200.3 262.75 198.946 262.622 197.643 262.581C193.287 262.488 188.839 263.612 184.487 262.936C179.972 263.752 175.47 262.235 170.923 262.604C169.591 261.533 167.975 262.142 166.57 261.928C165.114 261.629 163.658 261.329 162.167 261.166C158.927 260.994 155.881 259.777 152.694 259.107C151.426 258.929 150.209 258.836 149.272 257.648C149.167 258.059 149.046 258.247 148.976 258.521C143.77 257.188 138.579 256.079 133.443 254.473C130.789 253.721 128.135 252.968 125.516 252.079C121.425 250.667 117.404 248.982 113.383 247.296C106.351 244.255 99.874 240.189 93.5178 235.935C88.9043 232.857 84.619 229.352 80.3338 225.846C76.2875 222.548 72.3623 219.062 68.4881 215.662C67.0544 214.419 65.7927 213.075 64.5311 211.73C63.3714 210.557 62.2977 209.334 61.189 208.247C60.0802 207.16 59.2296 205.921 58.0348 204.885C57.13 204.143 56.7254 202.871 55.6836 202.094C54.6417 201.316 54.1002 200.01 53.1444 199.181C52.2395 198.439 51.7489 197.219 50.5509 196.766C49.6175 194.994 47.8747 193.819 46.7341 192.286C45.4566 190.718 43.9719 189.389 42.6593 187.959C41.3976 186.614 40.3781 184.893 38.6672 184.163C37.5139 181.825 35.3952 180.407 33.8627 178.409C32.2284 176.239 30.2148 174.41 28.9245 172.036C27.1977 171.083 26.9684 169.127 25.7577 167.868C23.0974 165.143 21.5906 161.619 19.6186 158.487C17.6465 155.355 15.7956 152.035 13.9095 148.851C13.1959 147.647 12.7404 146.289 12.3358 145.018C11.7943 143.712 10.5135 142.727 10.7621 141.185C9.60242 140.012 9.69816 138.212 8.88258 136.835C8.37285 135.975 7.8472 134.892 7.86958 133.949C7.72636 131.941 6.7069 130.221 6.30557 128.366C5.90425 126.512 5.76103 124.504 4.91363 122.682C5.41392 122.153 4.3211 121.289 5.31844 120.815C5.40447 120.764 5.37264 120.318 5.27069 120.146C3.82429 118.097 4.09533 115.611 3.6112 113.225C3.04428 110.306 2.59846 107.2 2.25458 104.265C1.86296 100.661 0.716185 97.1563 1.07972 93.4539C1.33159 91.3286 0.640356 89.181 0.481222 86.9506C0.302934 85.0803 0.656767 83.1271 0.529456 81.3428C0.535922 80.1766 1.65759 78.9309 0.411845 77.8092C0.555322 76.6781 0.698796 75.547 0.842273 74.4159C0.934773 73.1988 0.941238 72.0326 0.947704 70.8664C0.817422 66.5267 1.5952 62.3464 2.59602 58.1502C2.98168 56.6431 2.90534 54.9448 3.42801 53.4728C5.06612 48.7827 6.37925 43.9365 8.5654 39.3867C9.19002 38.0868 9.95163 36.8219 10.7642 35.643C11.9401 33.9002 12.654 31.9662 14.0529 30.2075C16.3663 27.442 18.5428 24.6415 21.2991 22.4272C23.0739 20.9107 24.8998 19.4803 26.6747 17.9637C28.6567 16.2083 30.8585 15.0199 33.0953 13.6946C34.73 12.7261 35.9886 11.5155 37.1454 10.1327C37.6456 9.60383 38.2989 9.33308 38.8501 8.89023C39.2293 8.54932 39.6085 8.20842 40.0737 7.81654C41.0902 6.98181 41.9538 5.88901 43.4449 6.05163C43.7189 6.12176 43.9994 5.02569 44.4455 4.99387C45.4588 4.74223 46.5772 4.07958 47.721 5.02917C48.1479 5.35739 48.7979 5.6697 49.3459 5.80993C51.315 6.38681 53.198 7.01465 55.1671 7.59152C55.4411 7.66166 55.7151 7.73178 55.8011 7.68081C56.8527 6.70909 57.5695 7.33044 58.4234 7.98688ZM193.736 224.794C194.969 225.11 195.635 225.645 196.116 225.476C197.904 224.766 199.79 224.811 201.625 224.77C203.41 224.642 205.264 224.241 207.084 223.977C208.903 223.712 210.859 223.483 212.51 222.738C215.021 221.482 217.783 221.24 220.342 220.654C222.763 220.033 225.118 219.103 227.744 218.826C228.636 218.762 229.547 218.339 230.458 217.915C231.714 217.287 232.832 216.625 234.327 216.204C235.735 215.835 236.924 214.898 238.367 214.392C239.587 213.901 240.875 213.72 241.993 213.057C243.112 212.394 244.383 211.99 245.552 211.413C248.028 210.295 250.587 209.709 253.063 208.591C253.321 208.438 253.512 207.976 253.821 207.909C254.216 207.791 254.662 207.759 255.022 207.778C255.382 207.797 255.777 207.68 256.137 207.699C255.985 207.441 255.969 207.218 255.918 207.132C255.867 207.046 255.902 206.909 255.902 206.909C257.122 206.418 257.9 205.376 258.83 204.592C257.696 205.032 256.781 206.039 255.752 206.067C254.414 206.163 253.601 207.342 252.658 207.319C251.218 207.243 250.526 208.234 249.478 208.622C248.825 208.893 247.745 208.836 247.381 209.399C247.018 209.963 246.709 210.03 246.056 210.301C244.957 210.604 243.634 210.922 242.688 211.483C240.279 212.91 237.666 213.993 234.935 214.681C232.909 215.185 230.898 215.911 228.837 216.551C226.775 217.191 224.733 217.472 222.671 218.112C219.905 218.937 217.073 219.453 214.307 220.278C212.504 220.765 210.547 220.995 208.607 221.447C206.803 221.934 205 222.422 203.181 222.686C201.361 222.95 199.593 223.301 197.738 223.702C196.674 223.867 195.403 224.272 193.736 224.794ZM199.98 236.903C200.391 237.008 200.802 237.113 201.248 237.081C203.702 236.906 206.088 236.422 208.558 236.47C209.724 236.477 210.858 236.037 211.958 235.734C212.971 235.483 214.325 235.61 215.134 235.014C216.065 234.231 217.687 235.595 218.107 233.951C220.303 233.928 222.211 233.03 224.289 232.613C225.662 232.38 226.898 232.113 228.17 231.708C229.441 231.304 230.9 231.02 231.984 230.495C233.067 229.969 234.695 230.167 235.492 228.765C235.648 228.44 237.021 228.207 237.311 228.5C238.181 229.38 238.423 229.004 238.72 228.131C240.055 228.618 240.733 226.821 242.104 227.172C242.789 227.347 243.563 226.889 244.302 226.567C244.955 226.296 245.061 225.885 244.446 225.436C243.62 225.808 242.811 226.404 242.091 226.366C241.148 226.344 240.523 227.643 239.309 226.968C238.745 226.605 238.07 227.819 237.267 227.248C237.13 227.213 236.786 227.417 236.563 227.433C233.214 228.255 229.948 229.609 226.583 230.207C225.347 230.475 224.177 231.051 222.89 231.233C221.775 231.313 220.641 231.752 219.49 231.969C218.203 232.15 217.069 232.59 215.797 232.994C210.559 234.355 205.238 235.183 199.98 236.903ZM153.625 131.395C154.056 131.141 154.4 130.937 154.744 130.733C154.317 130.405 153.941 130.162 153.173 129.455C154.887 129.602 155.881 129.71 157.099 129.803C156.77 130.229 156.305 130.621 156.407 130.793C156.611 131.138 156.987 131.38 157.312 131.536C157.739 131.864 158.567 130.908 158.819 131.922C159.66 131.772 160.721 132.189 161.413 131.198C161.244 130.717 161.11 130.099 160.976 129.481C162.859 130.109 162.859 130.109 165.297 129.711C165.52 129.695 165.606 129.644 165.743 129.679C166.874 129.822 166.874 129.822 167.119 128.863C164.137 128.538 164.137 128.538 162.35 129.249C162.283 128.939 162.662 128.599 162.012 128.286C161.174 127.853 160.702 129.411 159.868 128.394C159.186 127.636 158.577 129.159 157.978 128.933C157.809 128.452 157.726 127.919 157.437 127.626C157.147 127.333 156.599 127.193 156.548 127.107C155.91 127.601 155.394 127.907 154.843 128.349C154.486 127.747 154.282 127.403 154.333 127.489C152.775 127.017 151.825 128.161 150.506 127.897C150.369 127.862 150.127 128.238 149.783 128.441C150.21 128.77 150.586 129.012 150.927 129.391C150.72 129.63 150.478 130.006 150.27 130.245C150.509 130.452 150.799 130.745 151.022 130.729C151.934 130.306 152.823 130.825 153.625 131.395ZM176.897 140.854C176.521 140.612 176.145 140.37 175.785 140.351C174.877 140.191 173.848 140.22 172.975 139.923C170.955 139.26 168.826 139.592 166.736 139.203C166.102 139.114 165.376 140.241 164.799 139.072C164.506 139.362 164.229 139.875 163.834 139.993C163.301 140.076 162.722 139.489 162.084 139.983C161.826 140.136 161.705 140.324 161.584 140.512C161.549 140.649 161.702 140.907 161.753 140.993C161.89 141.028 162.113 141.012 162.285 140.91C162.457 140.808 162.664 140.569 162.75 140.518C164.566 140.837 166.421 140.436 168.167 141.029C169.177 141.36 170.343 141.367 171.458 141.287C172.35 141.223 172.969 141.09 173.771 141.66C174.625 142.316 175.928 142.358 176.897 140.854Z" fill="#333333"/>
</svg>
