<svg width="171" height="167" viewBox="0 0 171 167" fill="none" xmlns="http://www.w3.org/2000/svg">
<path d="M154.9 65.5C154 65.2 153.2 65.8 152.6 65C152 64.2 151.6 63.5 151.6 62.4C151.6 59.1 151.7 55.9 151.6 52.6C151.6 51.8 151.9 51.3 152.2 50.6C153 48.9 153.9 47.2 155.1 45.8C155.7 45.1 156.3 44.6 157.2 44.2C157.7 44 158 44.6 158.6 44.1C159.1 43.7 159.6 44.9 160.3 44.8C160.7 45.9 159.8 46.4 159.3 47C160 47.3 160.8 47.3 161.5 47.7C162.2 48.1 162.7 48.5 162.6 49.3C162.4 50.3 163.2 50.7 163.7 51.3C163.5 51.6 163 51.7 163.2 52.2C164.4 55.6 163.5 57.9 162.5 60.7C162.2 61.5 161.8 62.4 161.7 63.1C161.6 64.7 160.5 65.9 160.2 67.4C160 68.5 159.3 69.2 158 69.1C157.8 69.1 157.6 69.6 156.9 69.5C156.7 69.3 156.2 69 156.2 68.7C156.2 67.7 156.1 66.9 155.1 66.4C154.7 66.6 154.9 66 154.9 65.5Z" fill="black"/>
<path d="M100.6 147.2C101.7 147.5 103.1 146.6 104 148C103.6 148.8 103.3 149.5 102.9 150.2C103.4 150.7 103.7 150.5 104.1 150.3C105.8 149.6 106.2 149.9 106.8 151.5C106.9 151.7 106.8 152.1 107.1 152.2C109 152.6 108.6 154.5 109.4 155.6C108.6 156.6 110 157.5 109.5 158.3C109 159.2 109.2 160.4 108.1 161C107.8 161.2 107.9 161.5 107.9 161.7C107.5 163.9 106.6 165.6 104.3 166.4C104 166.5 103.9 167 103.2 166.8C102.9 166.2 102.6 165.5 102.2 164.7C101.6 164.5 100.6 165 100.8 163.7C99.8 163.7 98.8 163.7 97.7 163.7C97.5 162.2 97.7 160.6 96.5 159.5C96.4 159.4 96.4 159.1 96.5 159C97.2 157.7 96.7001 156.2 97.3 155C97.6001 154.4 97.8 153.9 97.4 153.3C96.5 151.9 97.4 150.8 98.1 149.8C98.8 148.8 99.7 148.1 100.6 147.2Z" fill="black"/>
<path d="M127.5 77.2C127.1 78.1 126.3 77.9 125.4 78C125.6 79.1 125 80.4 125.9 81.5C125 81.5 125 81.5 124.6 81.2C124 81.6 123.8 82.2 123.3 82.9C123.4 80.9 122.6 79.5 121.2 78.5C120.6 78.4 120.5 78.9 120.1 79C119 77 119 76 119.9 70.8C120.3 68.1 121.7 65.9 123.7 63.7C124.3 63.6 125.3 65.3 126.2 63.6C127.1 65.1 125.5 66 125.4 67.5C126.3 67.1 127.1 66.8 128 67.1C128.5 67.5 127.9 68.2 128.4 68.6C129.2 69.3 129.9 70 128.8 71C130 71.9 128.5 72.6 128.7 73.5C128.9 74.4 128.7 75.3 128.7 76.2C127.8 76 127.7 75 126.8 75.2C125.9 76.3 127.3 76.4 127.5 77.2Z" fill="black"/>
<path d="M27.4 134C27.1 133.3 26.2 133.7 25.6 133.5C25.6 133 25.6 132.6 25.6 132.3C25.5 132.2 25.5 132.1 25.4 132.1C23.9 132.6 23.1 131 21.8 130.9C20.5 130.7 19.8 129.8 19.6 128.5C19.5 128 19.7 127.6 20.2 127.4C18 125.6 19.4 123.8 20.1 122C21 119.7 22.8 119.4 24.9 119.5C25.3 120.7 25.1 121.6 24.3 122.4C25.9 123.5 26.4 121.9 27.5 121.6C27.8 122.2 28.1 122.8 28.4 123.3C28.4 123.9 27.5 124.1 27.9 124.8C28.6 125.7 28.9 124.3 29.7 124.5C30.7 125.4 30.6 126.8 30.6 128.1C31 128.2 31.3 128.3 31.6 128.4C31.5 129.1 30.5 129.3 30.5 130C30.5 130.8 31.3 130.2 31.6 130.8C30.3 131.7 29.4 133.3 27.4 134Z" fill="black"/>
<path d="M90.7 95.8999C91.5 95.8999 92.2001 95.8999 92.9 95.8999C93.4 96.3999 93.2 97.5999 92.6 98.8999C93.9 99.9999 94.4 98.3999 95.1 98.0999C95.9 98.0999 96 98.7999 96.3 98.8999C96.5 99.6999 95.6 99.8999 95.9 100.7C96.5 101 97.7 100.7 98 101.7C98.2 102.4 98.3 103.3 97.5 103.9C97.9 104 98.2 104.1 98.5 104.2C98.4 105 97.4 105.6 98 106.6C96.8 108.2 94.8 108.8 93.3 110C93 110.2 92.4 111 91.7 110.5C91.4 110.1 92.1 110.1 92 109.7C91.2 109.2 90.3 109.8 89.5 109.4C89.2 108.8 89.6 107.9 88.7 107.5C87.5 108.1 86.4 108.3 85.4 106.7C86.7001 105.8 88.5 105.5 88.8 103.5C87.7001 103.5 87 104.5 86 104.6C85.8 104.4 85.5 104.2 85.2 103.8C85.1 103.7 85.3 103.7 85.4 103.5C86 102.3 87.9 102.5 88.1 100.9C89.3 100.4 89.2001 99.0999 89.4 98.1999C89.5 97.2999 90 96.6999 90.7 95.8999Z" fill="black"/>
<path d="M44.6 158.2C44.9 157.5 45.5 157.3 45 156.5C44.7 156.1 43.9 156.7 43.1 156.3C43.1 156.1 43 155.9 42.9 155.5C42.8 155.4 42.7 155.3 42.6 155.4C42.3 155.8 41.9 155.8 41.4 155.8C40.1 155.8 39.8 155.4 39.7 154C39.7 153.4 40.1 153.1 40.2 152.6C39.8 152.6 39.3 152.5 38.7 152.5C38.3 150.5 39.4 148.7 39.8 146.8C40 145.9 41.4 145.4 42.6 145.4C43 145.6 42.9 146 43 146.2C43.2 146.6 43.3 146.5 43.5 146.3C44.1 145.8 44.8 145.7 45.3 146.4C45.8 147.1 46.5 147 47.2 147.1C47.6 147.5 47.3 148 47.4 148.4C47.7 148.9 48.2 148.6 48.7 148.7C49.7 149.4 49.2 150.9 50.1 151.8C47.3 156.5 46.6 157.3 44.6 158.2Z" fill="black"/>
<path d="M76 41.4C75.7 39.9 74.8 39.5 73.3 39.8C72 37.3 72.5 34.7 72.8 32.2C72.9 31.7 73.2 31 73.1 30.5C72.9 29.4 73.6 28.5 73.8 27.5C73.9 26.7 75.1 26.5 75.9 26.1C76.9 27 76.9 27 77.2 28.2C77.5 28.2 77.9 28.2 77.6 28.2C79 28.2 78.4 29.2 79 29.4C79.3 29.5 79.9 29.9 79.7 30.4C79.5 31.3 80.8 31.9 80.2 32.6C79.6 33.3 80 34.2 79.6 34.8C78.8 36.4 78.5 38.2 78.1 39.9C77.7 41.1 77.1 41.5 76 41.4Z" fill="black"/>
<path d="M133.5 120.7C133.1 120.4 132.8 120 132.2 119.9C130.5 119.8 130.6 119.7 130.2 117.9C129 117.5 127.9 117.9 126.8 118.4C126.3 117.9 126.6 117.4 126.4 116.9C126.8 116.8 127.1 116.7 127.5 116.5C127.5 115.6 127.5 114.6 127.5 113.4C127 113.6 126.4 113.7 125.7 114C125.4 114 125.3 113.4 124.9 113.3C125.5 111.7 126.8 110.7 127.9 109.6C129.2 109.9 130.7 108.4 131.9 110C131.9 110.1 131.8 111.9 131.9 112.3C131.6 112.3 131.4 112.4 131.1 112.4C130.9 112.4 130.7 112.4 130.6 112.4C130.2 112.8 130.5 113.5 129.9 113.9C131.3 113.4 132.5 112.8 133.4 111.8C133.8 112.2 134.2 112.6 134.8 112.4C133.6 113.4 135.2 114.6 133.8 115.5C134.9 115.5 135 114.8 135.4 114.7C135.8 114.6 136.2 114.6 136.6 114.5C137.1 115.5 137.8 116.4 137.2 117.7C136.5 118.3 134.9 118.2 134.6 119.9C135.8 119.7 136.6 119 137.3 118.4C138.1 118.5 138 118.9 138 119.3C136.6 119.2 136.8 120.9 135.6 121.3C134.7 121.6 133.9 122.4 132.7 123.2C132.8 121.9 133.2 121.3 133.5 120.7Z" fill="black"/>
<path d="M108.5 38.9C108.2 39.2 107.9 39.5 107.5 39.9C108.4 40.5 106.5 41.6 107.9 42.2C105.8 44.7 105.8 44.7 105.7 47.3C104.9 47.3 104.1 47.3 103.2 47.3C103 47.2 103.2 46.8 103 46.5C100.5 46.2 99.9 45.6 99.8 43.1C99.8 42.4 100 41.7 99.3 41.2C99.8 40.5 99.5 39.5 100.1 38.7C101.2 37.1 102.5 35.9 103.8 34.5C104.3 34.2 104.8 34.4 105.2 34.5C105.4 35.5 104.1 36.1 105 37.2C105.3 36.7 105.6 36.3 105.9 35.9C106.9 36.9 108.5 37.3 108.5 38.9Z" fill="black"/>
<path d="M149.4 1.3C149 1.9 148.2 1.2 147.8 1.9C148.6 2.3 149.4 2 150.3 2.1C150.6 3.2 151.3 4.3 151.7 5.5C152.6 8 152 10.2 151.1 12.5C150.7 13.4 150.2 13.7 149.1 13.5C148.8 12.9 148.5 12.3 148.2 11.5C147.6 11.3 146.6 11.5 146.2 10.4C146.3 8.6 146.3 6.6 145 4.9C145.4 4.2 145.8 3.5 146.1 2.8C145.8 2.7 145.5 2.6 145 2.4C145.3 1.5 145.6 0.7 146.4 0C147.1 0 147.9 0 148.7 0C149 0.4 149.5 0.6 149.4 1.3Z" fill="black"/>
<path d="M70.5 68.2C70.1 68.8 69.5 68.6 69.1 68.6C67.8 67.4 68.6 65.6 67.7 64.3C69.3 61.1 69.3 61.1 72.1 59.9C72.7 60 73 60.4 73.2 60.9C73.4 61.5 72.3 61.6 72.7 62.3C73.2 62.9 73.6 62.5 74 62.1C75.6 62.7 75.2 64.7 76.5 65.6C76.3 66.7 76.7 67.9 76.3 69L74 71.8C73.6 71.8 73.3 71.8 72.9 71.8C72.6 71.3 71.9 69.5 72 69.3C71.5 69.1 71 68.7 70.5 68.2Z" fill="black"/>
<path d="M40.6 69.2C40.1 69.4 40.6 70.2 40.1 70.2C39.3 70.4 39 69.9 38.8 69.6C38.3 68.9 38.9 67.9 38.5 67.3C38 66.5 37.8 66 38.4 65.2C38.9 64.5 38.6 63.6 39 62.7C40 60.6 39.9 60.5 42.2 60.5C42.3 60.6 42.4 60.6 42.4 60.7C42.4 61.1 42.4 61.4 42.4 61.9C43.1 62.3 44.2 62 44.7 63.3C45 64.2 46 64.9 45.8 66.1C45.6 67 45.9 68 45 68.8C44.5 69.2 44.1 70 44.1 70.9C44.1 71.5 43.6 71.9 42.9 72C42.2 72.1 41.9 71.7 41.6 71.3C41.1 70.6 40.9 69.9 40.6 69.2Z" fill="black"/>
<path d="M58 88.3C58.8 88.3 59.5 88.3 60.2 88.3C60.8 88.7001 60.3 89.3 60.6 89.8C61 90.2001 61.5 89.9 61.9 90C62.5 91.3 63.3 92.5 63.7 93.8C64.1 95.3 63.5 96.7 63 98.1C61.9 98.6 61.4 97.7 60.8 97.1C60.1 97.1 59.4 97.1 58.6 97.1C58.2 96.1 57.7 95.2 56.4 95.5C55.8 94.8 56.6 93.6 55.6 93.1C56.1 92.4 56.6 91.7001 56.7 90.9C56.8 89.9 57.3 89.1001 58 88.3Z" fill="black"/>
<path d="M1.10002 96.7C2.10002 95.4 3.50002 94.9 5.10002 94.8C6.20002 96.1001 4.40002 96.4 4.20002 97.2C5.40002 98.3 6.30002 96.5 7.40002 97.2C8.00002 97.8 7.20002 98 7.00002 98.5C7.40002 99 8.10002 98.5 8.40002 98.8C8.80002 99.9 8.10002 101.2 9.00002 102.3C8.10002 103.1 8.30002 104.7 7.00002 105.3C5.80002 105.1 5.10002 104.2 4.20002 103.5C3.40002 102.9 2.10002 103 1.50002 101.5C2.10002 100.1 0.600025 98.5 1.10002 96.7Z" fill="black"/>
<path d="M165.4 92.2C164.5 91.7 163.6 91.5 163 90.5C163.4 90.3 163.8 90 164.3 89.7C163.1 89.3 162.1 90.5 161 89.7C161.6 88.7 162.9 88.7 163.7 88C163.8 87.4 163.4 87.4 162.9 87.2C162.1 86.9 162 88.2 161.2 87.8C160.9 87.5 160.8 87.1 161.1 86.9C162.9 85.9 164.3 84.5 165.8 83.2C166.7 82.4 167 82.2 168.5 82C168.4 82.6 167.9 82.8 167.5 83.2C168.2 84 168.8 83.3 169.5 83C169.6 84.1 170.5 85.1 170.1 86.6C168.3 87.9 167.4 90.4 165.4 92.2Z" fill="black"/>
</svg>
